<svg display="none" xmlns="http://www.w3.org/2000/svg">
    <symbol id="home-svg" viewBox="0 0 16 16">
       <path id="Path_87" data-name="Path 87" d="M-7.159,7.134l-7.5-7a.5.5,0,0,0-.682,0l-7.5,7a.5.5,0,0,0-.024.707.5.5,0,0,0,.706.025L-21,6.784V15.5a.5.5,0,0,0,.5.5h4a.5.5,0,0,0,.5-.5V11h2v4.5a.5.5,0,0,0,.5.5h4a.5.5,0,0,0,.5-.5V6.784l1.159,1.082A.5.5,0,0,0-7.5,8a.494.494,0,0,0,.365-.159A.5.5,0,0,0-7.159,7.134ZM-10,15h-3V10.5a.5.5,0,0,0-.5-.5h-3a.5.5,0,0,0-.5.5V15h-3V5.851l5-4.667,5,4.667Z" transform="translate(23 0)"/>
    </symbol>

    <symbol id="search-svg" viewBox="0 0 487.95 487.95">
       <g>
		    <path d="M481.8,453l-140-140.1c27.6-33.1,44.2-75.4,44.2-121.6C386,85.9,299.5,0.2,193.1,0.2S0,86,0,191.4s86.5,191.1,192.9,191.1
			c45.2,0,86.8-15.5,119.8-41.4l140.5,140.5c8.2,8.2,20.4,8.2,28.6,0C490,473.4,490,461.2,481.8,453z M41,191.4
			c0-82.8,68.2-150.1,151.9-150.1s151.9,67.3,151.9,150.1s-68.2,150.1-151.9,150.1S41,274.1,41,191.4z"/>
	    </g>
    </symbol>

    <symbol id="git-svg" viewBox="0 0 32 32">
       <path d="M 16 2 C 15.496094 2 15.003906 2.183594 14.625 2.5625 L 11.8125 5.40625 C 11.660156 5.488281 11.53125 5.605469 11.4375 5.75 L 2.5625 14.625 C 1.804688 15.378906 1.804688 16.617188 2.5625 17.375 L 14.625 29.4375 C 15.382813 30.191406 16.617188 30.191406 17.375 29.4375 L 29.4375 17.375 C 30.195313 16.621094 30.195313 15.382813 29.4375 14.625 L 17.375 2.5625 C 16.996094 2.183594 16.503906 2 16 2 Z M 16 4.03125 L 27.96875 16 L 16 27.96875 L 4.03125 16 L 12.3125 7.71875 L 14.0625 9.46875 C 14.015625 9.636719 14 9.816406 14 10 C 14 10.738281 14.402344 11.371094 15 11.71875 L 15 20.28125 C 14.402344 20.628906 14 21.261719 14 22 C 14 23.105469 14.894531 24 16 24 C 17.105469 24 18 23.105469 18 22 C 18 21.261719 17.597656 20.628906 17 20.28125 L 17 12.4375 L 20.0625 15.5 C 20.019531 15.660156 20 15.828125 20 16 C 20 17.105469 20.894531 18 22 18 C 23.105469 18 24 17.105469 24 16 C 24 14.894531 23.105469 14 22 14 C 21.828125 14 21.660156 14.019531 21.5 14.0625 L 17.9375 10.5 C 17.980469 10.339844 18 10.171875 18 10 C 18 8.894531 17.105469 8 16 8 C 15.816406 8 15.636719 8.015625 15.46875 8.0625 L 13.71875 6.3125 Z"/>
    </symbol>

    <symbol id="close-svg" viewBox="0 0 24 24">
       <path d="M6.22566 4.81096C5.83514 4.42044 5.20197 4.42044 4.81145 4.81096C4.42092 5.20148 4.42092 5.83465 4.81145 6.22517L10.5862 11.9999L4.81151 17.7746C4.42098 18.1651 4.42098 18.7983 4.81151 19.1888C5.20203 19.5793 5.8352 19.5793 6.22572 19.1888L12.0004 13.4141L17.7751 19.1888C18.1656 19.5793 18.7988 19.5793 19.1893 19.1888C19.5798 18.7983 19.5798 18.1651 19.1893 17.7746L13.4146 11.9999L19.1893 6.22517C19.5799 5.83465 19.5799 5.20148 19.1893 4.81096C18.7988 4.42044 18.1657 4.42044 17.7751 4.81096L12.0004 10.5857L6.22566 4.81096Z"/>
    </symbol>

    <symbol id="eye-svg" viewBox="0 0 442.04 442.04">
        <g>
            <path d="M221.02,341.304c-49.708,0-103.206-19.44-154.71-56.22C27.808,257.59,4.044,230.351,3.051,229.203
                c-4.068-4.697-4.068-11.669,0-16.367c0.993-1.146,24.756-28.387,63.259-55.881c51.505-36.777,105.003-56.219,154.71-56.219
                c49.708,0,103.207,19.441,154.71,56.219c38.502,27.494,62.266,54.734,63.259,55.881c4.068,4.697,4.068,11.669,0,16.367
                c-0.993,1.146-24.756,28.387-63.259,55.881C324.227,321.863,270.729,341.304,221.02,341.304z M29.638,221.021
                c9.61,9.799,27.747,27.03,51.694,44.071c32.83,23.361,83.714,51.212,139.688,51.212s106.859-27.851,139.688-51.212
                c23.944-17.038,42.082-34.271,51.694-44.071c-9.609-9.799-27.747-27.03-51.694-44.071
                c-32.829-23.362-83.714-51.212-139.688-51.212s-106.858,27.85-139.688,51.212C57.388,193.988,39.25,211.219,29.638,221.021z"/>
        </g>
        <g>
            <path d="M221.02,298.521c-42.734,0-77.5-34.767-77.5-77.5c0-42.733,34.766-77.5,77.5-77.5c18.794,0,36.924,6.814,51.048,19.188
                c5.193,4.549,5.715,12.446,1.166,17.639c-4.549,5.193-12.447,5.714-17.639,1.166c-9.564-8.379-21.844-12.993-34.576-12.993
                c-28.949,0-52.5,23.552-52.5,52.5s23.551,52.5,52.5,52.5c28.95,0,52.5-23.552,52.5-52.5c0-6.903,5.597-12.5,12.5-12.5
                s12.5,5.597,12.5,12.5C298.521,263.754,263.754,298.521,221.02,298.521z"/>
        </g>
        <g>
            <path d="M221.02,246.021c-13.785,0-25-11.215-25-25s11.215-25,25-25c13.786,0,25,11.215,25,25S234.806,246.021,221.02,246.021z"/>
        </g>
    </symbol>    

    <symbol id="profile-svg" viewBox="0 0 64 64">
        <g>
            <path d="M32,42c8.271,0,15-8.523,15-19S40.271,4,32,4s-15,8.523-15,19S23.729,42,32,42z M32,8c5.963,0,11,6.869,11,15
                s-5.037,15-11,15s-11-6.869-11-15S26.037,8,32,8z"/>
            <path d="M4.103,45.367l-4,12c-0.203,0.61-0.101,1.28,0.275,1.802C0.753,59.691,1.357,60,2,60h60c0.643,0,1.247-0.309,1.622-0.831
                c0.376-0.521,0.479-1.191,0.275-1.802l-4-12c-0.209-0.626-0.713-1.108-1.348-1.29l-14-4c-0.482-0.139-0.996-0.09-1.444,0.134
                L32,45.764l-11.105-5.553c-0.448-0.224-0.962-0.272-1.444-0.134l-14,4C4.815,44.259,4.312,44.741,4.103,45.367z M19.802,44.137
                l11.304,5.652c0.562,0.281,1.227,0.281,1.789,0l11.304-5.652l12.238,3.496L59.226,56H4.774l2.789-8.367L19.802,44.137z"/>
        </g>
    </symbol>

    <symbol id="love-svg" viewBox="0 -0.43 29.956 29.956">
         <path id="_10_-_Love-2" data-name="10 - Love" d="M16,4.986A8.785,8.785,0,0,0,3.522,4.075c-3.2,3.038-3.395,9.113-.2,15.189,2.131,4.325,7.576,8.69,12.14,11.581a1,1,0,0,0,1.07,0c4.567-2.893,10.017-7.262,12.15-11.6,3.188-6.063,2.99-12.133-.207-15.169A8.785,8.785,0,0,0,16,4.986h0ZM15.154,7.2a1,1,0,0,0,1.692,0A6.792,6.792,0,0,1,27.1,5.525h0A6.408,6.408,0,0,1,28.92,9.452a15.475,15.475,0,0,1-2.015,8.882c0,.008-.009.017-.013.025C24.98,22.251,20.161,26.115,16,28.812c-4.161-2.7-8.98-6.561-10.892-10.453,0-.008-.008-.017-.013-.025A15.483,15.483,0,0,1,3.08,9.452,6.414,6.414,0,0,1,4.9,5.525,6.792,6.792,0,0,1,15.154,7.2Z" transform="translate(-1.023 -1.896)" fill-rule="evenodd"/>
    </symbol>

    <symbol id="burger-svg" viewBox="0 0 24 24">
         <g clip-path="url(#clip0_105_1724)">
            <path d="M3 6.00098H21M3 12.001H21M3 18.001H21" stroke-linecap="round" stroke-linejoin="round" stroke-width="2"/>
        </g>
    </symbol>

    <symbol id="cart-svg"   viewBox="0 0 56 56">
        <path d="M 20.0079 39.6485 L 47.3596 39.6485 C 48.2735 39.6485 49.0703 38.8985 49.0703 37.8907 C 49.0703 36.8829 48.2735 36.1328 47.3596 36.1328 L 20.4063 36.1328 C 19.0704 36.1328 18.2501 35.1953 18.0391 33.7656 L 17.6641 31.3047 L 47.4062 31.3047 C 50.8281 31.3047 52.5859 29.1953 53.0783 25.8438 L 54.9532 13.4453 C 55.0003 13.1407 55.0468 12.7656 55.0468 12.5547 C 55.0468 11.4297 54.2030 10.6563 52.9142 10.6563 L 14.6407 10.6563 L 14.1954 7.6797 C 13.9610 5.8750 13.3048 4.9609 10.9141 4.9609 L 2.6876 4.9609 C 1.7501 4.9609 .9532 5.7813 .9532 6.7188 C .9532 7.6797 1.7501 8.5000 2.6876 8.5000 L 10.6094 8.5000 L 14.3594 34.2344 C 14.8516 37.5625 16.6094 39.6485 20.0079 39.6485 Z M 51.0623 14.1953 L 49.3987 25.4219 C 49.2110 26.8750 48.4377 27.7656 47.0548 27.7656 L 17.1485 27.7891 L 15.1563 14.1953 Z M 21.8594 51.0391 C 23.9688 51.0391 25.6563 49.375 25.6563 47.2422 C 25.6563 45.1328 23.9688 43.4453 21.8594 43.4453 C 19.7266 43.4453 18.0391 45.1328 18.0391 47.2422 C 18.0391 49.375 19.7266 51.0391 21.8594 51.0391 Z M 43.7735 51.0391 C 45.9062 51.0391 47.5939 49.375 47.5939 47.2422 C 47.5939 45.1328 45.9062 43.4453 43.7735 43.4453 C 41.6641 43.4453 39.9532 45.1328 39.9532 47.2422 C 39.9532 49.375 41.6641 51.0391 43.7735 51.0391 Z"/>
    </symbol>

    <symbol id="arrow-svg"   viewBox="0 0 32 32">
        <path class="cls-1" d="M10.05,29.73a1,1,0,0,1-.71-.29,1,1,0,0,1,0-1.42L20.66,16.71a1,1,0,0,0,0-1.42L9.34,4a1,1,0,0,1,1.42-1.42L22.07,13.88a3,3,0,0,1,0,4.24L10.76,29.44A1,1,0,0,1,10.05,29.73Z"/>
    </symbol>

    <symbol id="error-svg"   viewBox="0 0 24 24">
        <path d="M12 16H12.01M12 8V12M12 21C16.9706 21 21 16.9706 21 12C21 7.02944 16.9706 3 12 3C7.02944 3 3 7.02944 3 12C3 16.9706 7.02944 21 12 21Z" stroke-width="2" stroke-linecap="round" stroke-linejoin="round"/>
    </symbol>

    <symbol id="order-svg"   viewBox="0 0 1024 1024">
        <path d="M53.6 1023.2c-6.4 0-12.8-2.4-17.6-8-4.8-4.8-7.2-11.2-6.4-18.4L80 222.4c0.8-12.8 11.2-22.4 24-22.4h211.2v-3.2c0-52.8 20.8-101.6 57.6-139.2C410.4 21.6 459.2 0.8 512 0.8c108 0 196.8 88 196.8 196.8 0 0.8-0.8 1.6-0.8 2.4v0.8H920c12.8 0 23.2 9.6 24 22.4l49.6 768.8c0.8 2.4 0.8 4 0.8 6.4-0.8 13.6-11.2 24.8-24.8 24.8H53.6z m25.6-48H944l-46.4-726.4H708v57.6h0.8c12.8 8.8 20 21.6 20 36 0 24.8-20 44.8-44.8 44.8s-44.8-20-44.8-44.8c0-14.4 7.2-27.2 20-36h0.8v-57.6H363.2v57.6h0.8c12.8 8.8 20 21.6 20 36 0 24.8-20 44.8-44.8 44.8-24.8 0-44.8-20-44.8-44.8 0-14.4 7.2-27.2 20-36h0.8v-57.6H125.6l-46.4 726.4zM512 49.6c-81.6 0-148.8 66.4-148.8 148.8v3.2h298.4l-0.8-1.6v-1.6c0-82.4-67.2-148.8-148.8-148.8z"/>
    </symbol>

    <symbol id="del-svg"  viewBox="0 0 24 24">
        <path d="M6 7V18C6 19.1046 6.89543 20 8 20H16C17.1046 20 18 19.1046 18 18V7M6 7H5M6 7H8M18 7H19M18 7H16M10 11V16M14 11V16M8 7V5C8 3.89543 8.89543 3 10 3H14C15.1046 3 16 3.89543 16 5V7M8 7H16" stroke-width="2" stroke-linecap="round" stroke-linejoin="round"/>
    </symbol>

    <symbol id="list-svg"  viewBox="0 0 503.607 503.607">
        <g>
			<path d="M385.098,57.754h-41.967v-8.393c0-9.233-7.554-16.787-16.787-16.787h-25.18V24.18c0-14.269-10.911-25.18-25.18-25.18
				h-50.361c-14.269,0-25.18,11.751-25.18,25.18v8.393h-25.18c-9.233,0-16.787,7.554-16.787,16.787v8.393h-41.967
				c-23.502,0-41.967,18.466-41.967,41.967v360.918c0,23.502,18.466,41.967,41.967,41.967h268.59
				c23.502,0,41.967-18.466,41.967-41.967V99.721C427.066,76.22,408.6,57.754,385.098,57.754z M175.262,49.361h33.574
				c5.036,0,8.393-3.357,8.393-8.393V24.18c0-5.036,3.357-8.393,8.393-8.393h50.361c5.036,0,8.393,4.197,8.393,8.393v16.787
				c0,5.036,3.357,8.393,8.393,8.393h33.574v16.787v41.967H175.262V66.148V49.361z M410.279,460.639
				c0,14.269-10.911,25.18-25.18,25.18h-268.59c-14.269,0-25.18-10.911-25.18-25.18V99.721c0-14.269,10.911-25.18,25.18-25.18
				h41.967v33.574c0,9.233,7.554,16.787,16.787,16.787h151.082c9.233,0,16.787-7.554,16.787-16.787V74.541h41.967
				c14.269,0,25.18,10.911,25.18,25.18V460.639z"/>
			<path d="M343.131,183.656H158.475c-5.036,0-8.393,3.357-8.393,8.393s3.357,8.393,8.393,8.393h184.656
				c5.036,0,8.393-3.357,8.393-8.393S348.167,183.656,343.131,183.656z"/>
			<path d="M343.131,259.197H158.475c-5.036,0-8.393,3.357-8.393,8.393s3.357,8.393,8.393,8.393h184.656
				c5.036,0,8.393-3.357,8.393-8.393S348.167,259.197,343.131,259.197z"/>
			<path d="M343.131,334.738H158.475c-5.036,0-8.393,3.357-8.393,8.393c0,5.036,3.357,8.393,8.393,8.393h184.656
				c5.036,0,8.393-3.357,8.393-8.393C351.525,338.095,348.167,334.738,343.131,334.738z"/>
			<path d="M343.131,410.279H158.475c-5.036,0-8.393,3.357-8.393,8.393s3.357,8.393,8.393,8.393h184.656
				c5.036,0,8.393-3.357,8.393-8.393S348.167,410.279,343.131,410.279z"/>
		</g>
    </symbol>

    <symbol id="photo-svg"  viewBox="0 0 30 30">
        <path d="M21.167 12c-.402 0-.76.207-1.02.48l-5.993 6.296c-.26.29-.543.268-.792 0l-2.996-3.25c-.3-.324-.686-.52-1.107-.526-.422-.005-.814.205-1.115.543L3.16 21.136c-.48.48.26 1.21.737.682l4.986-5.593c.355-.41.626-.154.776.018l2.996 3.25c.298.325.686.507 1.102.507.416 0 .8-.187 1.102-.506l5.993-6.297c.31-.317.618-.162.792 0l4.487 4.636c.47.498 1.197-.24.707-.718L22.35 12.48c-.338-.35-.766-.48-1.185-.48zM3.5 24h23c.277 0 .5.223.5.5s-.223.5-.5.5h-23c-.277 0-.5-.223-.5-.5s.223-.5.5-.5zm5-18C7.125 6 6 7.125 6 8.5S7.125 11 8.5 11 11 9.875 11 8.5 9.875 6 8.5 6zm0 1c.834 0 1.5.666 1.5 1.5S9.334 10 8.5 10 7 9.334 7 8.5 7.666 7 8.5 7zm-7-7C.678 0 0 .678 0 1.5v27c0 .822.678 1.5 1.5 1.5h27c.822 0 1.5-.678 1.5-1.5v-27c0-.822-.678-1.5-1.5-1.5zm0 1h27c.286 0 .5.214.5.5v27c0 .286-.214.5-.5.5h-27c-.286 0-.5-.214-.5-.5v-27c0-.286.214-.5.5-.5z"/>
    </symbol>
</svg>