<svg display="none" xmlns="http://www.w3.org/2000/svg">
    <symbol id="home-svg" viewBox="0 0 16 16">
       <path id="Path_87" data-name="Path 87" d="M-7.159,7.134l-7.5-7a.5.5,0,0,0-.682,0l-7.5,7a.5.5,0,0,0-.024.707.5.5,0,0,0,.706.025L-21,6.784V15.5a.5.5,0,0,0,.5.5h4a.5.5,0,0,0,.5-.5V11h2v4.5a.5.5,0,0,0,.5.5h4a.5.5,0,0,0,.5-.5V6.784l1.159,1.082A.5.5,0,0,0-7.5,8a.494.494,0,0,0,.365-.159A.5.5,0,0,0-7.159,7.134ZM-10,15h-3V10.5a.5.5,0,0,0-.5-.5h-3a.5.5,0,0,0-.5.5V15h-3V5.851l5-4.667,5,4.667Z" transform="translate(23 0)"/>
    </symbol>

    <symbol id="search-svg" viewBox="0 0 487.95 487.95">
       <g>
		    <path d="M481.8,453l-140-140.1c27.6-33.1,44.2-75.4,44.2-121.6C386,85.9,299.5,0.2,193.1,0.2S0,86,0,191.4s86.5,191.1,192.9,191.1
			c45.2,0,86.8-15.5,119.8-41.4l140.5,140.5c8.2,8.2,20.4,8.2,28.6,0C490,473.4,490,461.2,481.8,453z M41,191.4
			c0-82.8,68.2-150.1,151.9-150.1s151.9,67.3,151.9,150.1s-68.2,150.1-151.9,150.1S41,274.1,41,191.4z"/>
	    </g>
    </symbol>

    <symbol id="git-svg" viewBox="0 0 32 32">
       <path d="M 16 2 C 15.496094 2 15.003906 2.183594 14.625 2.5625 L 11.8125 5.40625 C 11.660156 5.488281 11.53125 5.605469 11.4375 5.75 L 2.5625 14.625 C 1.804688 15.378906 1.804688 16.617188 2.5625 17.375 L 14.625 29.4375 C 15.382813 30.191406 16.617188 30.191406 17.375 29.4375 L 29.4375 17.375 C 30.195313 16.621094 30.195313 15.382813 29.4375 14.625 L 17.375 2.5625 C 16.996094 2.183594 16.503906 2 16 2 Z M 16 4.03125 L 27.96875 16 L 16 27.96875 L 4.03125 16 L 12.3125 7.71875 L 14.0625 9.46875 C 14.015625 9.636719 14 9.816406 14 10 C 14 10.738281 14.402344 11.371094 15 11.71875 L 15 20.28125 C 14.402344 20.628906 14 21.261719 14 22 C 14 23.105469 14.894531 24 16 24 C 17.105469 24 18 23.105469 18 22 C 18 21.261719 17.597656 20.628906 17 20.28125 L 17 12.4375 L 20.0625 15.5 C 20.019531 15.660156 20 15.828125 20 16 C 20 17.105469 20.894531 18 22 18 C 23.105469 18 24 17.105469 24 16 C 24 14.894531 23.105469 14 22 14 C 21.828125 14 21.660156 14.019531 21.5 14.0625 L 17.9375 10.5 C 17.980469 10.339844 18 10.171875 18 10 C 18 8.894531 17.105469 8 16 8 C 15.816406 8 15.636719 8.015625 15.46875 8.0625 L 13.71875 6.3125 Z"/>
    </symbol>

     <symbol id="close-svg" viewBox="0 0 24 24">
       <path d="M6.22566 4.81096C5.83514 4.42044 5.20197 4.42044 4.81145 4.81096C4.42092 5.20148 4.42092 5.83465 4.81145 6.22517L10.5862 11.9999L4.81151 17.7746C4.42098 18.1651 4.42098 18.7983 4.81151 19.1888C5.20203 19.5793 5.8352 19.5793 6.22572 19.1888L12.0004 13.4141L17.7751 19.1888C18.1656 19.5793 18.7988 19.5793 19.1893 19.1888C19.5798 18.7983 19.5798 18.1651 19.1893 17.7746L13.4146 11.9999L19.1893 6.22517C19.5799 5.83465 19.5799 5.20148 19.1893 4.81096C18.7988 4.42044 18.1657 4.42044 17.7751 4.81096L12.0004 10.5857L6.22566 4.81096Z"/>
    </symbol>

    <symbol id="eye-svg" viewBox="0 0 442.04 442.04">
        <g>
            <path d="M221.02,341.304c-49.708,0-103.206-19.44-154.71-56.22C27.808,257.59,4.044,230.351,3.051,229.203
                c-4.068-4.697-4.068-11.669,0-16.367c0.993-1.146,24.756-28.387,63.259-55.881c51.505-36.777,105.003-56.219,154.71-56.219
                c49.708,0,103.207,19.441,154.71,56.219c38.502,27.494,62.266,54.734,63.259,55.881c4.068,4.697,4.068,11.669,0,16.367
                c-0.993,1.146-24.756,28.387-63.259,55.881C324.227,321.863,270.729,341.304,221.02,341.304z M29.638,221.021
                c9.61,9.799,27.747,27.03,51.694,44.071c32.83,23.361,83.714,51.212,139.688,51.212s106.859-27.851,139.688-51.212
                c23.944-17.038,42.082-34.271,51.694-44.071c-9.609-9.799-27.747-27.03-51.694-44.071
                c-32.829-23.362-83.714-51.212-139.688-51.212s-106.858,27.85-139.688,51.212C57.388,193.988,39.25,211.219,29.638,221.021z"/>
        </g>
        <g>
            <path d="M221.02,298.521c-42.734,0-77.5-34.767-77.5-77.5c0-42.733,34.766-77.5,77.5-77.5c18.794,0,36.924,6.814,51.048,19.188
                c5.193,4.549,5.715,12.446,1.166,17.639c-4.549,5.193-12.447,5.714-17.639,1.166c-9.564-8.379-21.844-12.993-34.576-12.993
                c-28.949,0-52.5,23.552-52.5,52.5s23.551,52.5,52.5,52.5c28.95,0,52.5-23.552,52.5-52.5c0-6.903,5.597-12.5,12.5-12.5
                s12.5,5.597,12.5,12.5C298.521,263.754,263.754,298.521,221.02,298.521z"/>
        </g>
        <g>
            <path d="M221.02,246.021c-13.785,0-25-11.215-25-25s11.215-25,25-25c13.786,0,25,11.215,25,25S234.806,246.021,221.02,246.021z"/>
        </g>
    </symbol>    
</svg>